# xmcd
#
# Track frame offsets:
#	150
#	14964
#	27205
#	39317
#	48776
#	63020
#
# Disc length: 1039 seconds
#
# Revision: 1
# Processed by: cddbd v1.5.1PL0 Copyright (c) Steve Scherf et al.
# Submitted via: audiograbber 1.83.01
#
DISCID=42040d06
DTITLE=Country Club - Happy Girl
DYEAR=2005
DGENRE=Country
TTITLE0=Happy Girl
TTITLE1=Stand My Your Man
TTITLE2=Little To Late
TTITLE3=Yellow Rose
TTITLE4=Lonsome Me
TTITLE5=Wild Unknown
EXTD=Country Music from GERMANY
EXTT0=
EXTT1=
EXTT2=
EXTT3=
EXTT4=
EXTT5=
PLAYORDER=
